<?xml version="1.0" standalone="no"?>
<!DOCTYPE svg PUBLIC "-//W3C//DTD SVG 20010904//EN"
 "http://www.w3.org/TR/2001/REC-SVG-20010904/DTD/svg10.dtd">
<svg version="1.0" xmlns="http://www.w3.org/2000/svg"
 width="200.000000pt" height="200.000000pt" viewBox="0 0 200.000000 200.000000"
 preserveAspectRatio="xMidYMid meet">
<metadata>
Created by potrace 1.11, written by Peter Selinger 2001-2013
</metadata>
<g transform="translate(0.000000,200.000000) scale(0.100000,-0.100000)"
fill="#000000" stroke="none">
<path d="M926 1528 c-267 -35 -411 -335 -274 -570 94 -158 304 -224 477 -147
133 58 220 192 223 340 5 226 -199 407 -426 377z"/>
<path d="M234 738 c-3 -4 328 -8 735 -8 408 0 741 3 741 8 0 10 -1470 10
-1476 0z"/>
<path d="M435 693 c-11 -2 -30 -6 -41 -8 -50 -11 -28 -105 28 -124 l31 -11
-27 25 c-26 24 -28 29 -28 65 0 36 2 40 22 40 10 0 24 -8 29 -17 9 -15 10 -14
11 10 0 15 -1 26 -2 26 -2 -1 -12 -3 -23 -6z"/>
<path d="M605 690 c-4 -6 -3 -16 3 -22 6 -6 12 -6 17 2 4 6 3 16 -3 22 -6 6
-12 6 -17 -2z"/>
<path d="M1245 690 c-4 -6 -3 -16 3 -22 6 -6 12 -6 17 2 4 6 3 16 -3 22 -6 6
-12 6 -17 -2z"/>
<path d="M484 625 c1 -68 19 -91 24 -30 2 22 8 35 18 35 13 0 18 -22 15 -61
-1 -9 5 -16 12 -16 10 0 14 11 13 36 -1 46 -13 63 -37 56 -15 -5 -19 -1 -19
19 0 15 -6 26 -13 26 -10 0 -13 -18 -13 -65z"/>
<path d="M753 620 c0 -47 4 -69 11 -67 6 2 13 17 17 33 l5 29 8 -25 c8 -24 23
-40 39 -40 4 0 0 12 -10 26 -14 21 -14 29 -4 46 17 27 3 38 -15 13 -18 -25
-33 -7 -26 31 3 16 0 24 -10 24 -11 0 -14 -16 -15 -70z"/>
<path d="M1144 622 l-1 -69 33 1 c30 1 75 26 47 26 -7 0 -14 -4 -18 -10 -3 -5
-13 -6 -21 -3 -13 5 -15 18 -12 64 4 49 2 59 -11 59 -13 0 -16 -14 -17 -68z"/>
<path d="M1455 625 c2 -84 19 -85 23 0 2 49 0 65 -11 65 -10 0 -13 -16 -12
-65z"/>
<path d="M1312 668 c-16 -16 -15 -80 2 -104 18 -24 31 -13 17 14 -15 29 -14
52 4 52 8 0 15 5 15 11 0 5 -4 7 -10 4 -9 -6 -14 8 -11 28 1 10 -3 9 -17 -5z"/>
<path d="M1384 662 c-12 -19 -7 -80 8 -99 6 -7 18 -13 27 -13 14 1 14 2 1 13
-25 20 -24 62 2 76 13 6 15 9 5 6 -12 -3 -20 2 -25 15 -7 19 -8 19 -18 2z"/>
<path d="M607 643 c-3 -7 -2 -62 2 -85 0 -5 6 -8 11 -8 6 0 10 23 10 50 0 44
-11 64 -23 43z"/>
<path d="M666 634 c-9 -8 -16 -20 -16 -25 0 -15 50 -62 58 -55 3 4 2 10 -4 14
-15 9 -27 49 -19 61 3 6 12 8 20 5 8 -4 12 -10 9 -15 -3 -5 0 -9 5 -9 6 0 11
8 11 18 0 23 -43 27 -64 6z"/>
<path d="M898 625 c3 -19 0 -25 -13 -25 -12 0 -15 5 -10 21 5 15 3 20 -6 17
-8 -3 -15 -19 -17 -36 -3 -26 1 -34 23 -44 22 -10 28 -9 43 7 16 18 16 18 0 6
-15 -11 -21 -11 -34 0 -15 12 -15 14 6 19 32 8 50 37 30 50 -23 15 -28 12 -22
-15z"/>
<path d="M955 606 c1 -53 19 -63 23 -13 3 30 7 37 20 35 12 -2 17 -13 17 -37
0 -19 6 -36 13 -38 8 -3 12 6 12 29 0 46 -13 62 -53 63 -33 2 -33 1 -32 -39z"/>
<path d="M1240 600 c0 -31 4 -47 13 -47 8 0 13 16 13 47 0 32 -4 47 -13 47 -9
0 -13 -15 -13 -47z"/>
<path d="M1520 635 c-27 -32 -9 -85 29 -85 14 1 14 2 -1 14 -21 16 -23 26 -5
26 7 0 22 6 32 14 16 12 17 16 6 30 -17 20 -45 21 -61 1z m40 -21 c0 -8 -7
-14 -15 -14 -15 0 -21 21 -9 33 10 9 24 -2 24 -19z"/>
<path d="M1570 569 c0 -5 5 -7 10 -4 6 3 10 8 10 11 0 2 -4 4 -10 4 -5 0 -10
-5 -10 -11z"/>
</g>
</svg>
